<svg enable-background="new 0 0 28.9 28.9" viewBox="0 0 28.9 28.9" xmlns="http://www.w3.org/2000/svg"><path fill="currentColor" d="m14.4 0c-7.9 0-14.4 6.5-14.4 14.4 0 8 6.5 14.4 14.4 14.4 8 0 14.4-6.5 14.4-14.4.1-7.9-6.4-14.4-14.4-14.4m-10 17.5c-.1.1-.2 0-.2 0l-.2-1.1.2-1.2s0-.1.1-.1c0 0 .1 0 .1.1l.2 1.2zm.8.6c0 .1-.1.1 0 0-.1.1-.2 0-.2 0l-.2-1.8.2-1.8s0-.1.1-.1c0 0 .1 0 .1.1l.2 1.9zm.8.4c0 .1 0 .1-.1.1s-.1 0-.1-.1l-.2-2.1.2-2.2c0-.1 0-.1.1-.1s.1 0 .1.1l.2 2.2zm.8 0c0 .1-.1.1-.1.1-.1 0-.1-.1-.1-.1l-.2-2.2.2-2.3c0-.1.1-.1.1-.1.1 0 .1.1.1.1l.2 2.3zm.9 0c0 .1-.1.1-.1.1-.1 0-.1-.1-.1-.1l-.2-2.2.2-2.1c0-.1.1-.1.1-.1.1 0 .1.1.1.1l.2 2.1zm.8 0c0 .1-.1.2-.2.2s-.2-.1-.2-.2l-.1-2.2.2-3.4c0-.1.1-.2.2-.2s.2.1.2.2l.2 3.4zm.9 0c0 .1-.1.2-.2.2s-.2-.1-.2-.2l-.2-2.2.2-4.2c0-.1.1-.1.2-.1s.2.1.2.2l.2 4.2zm.8 0c0 .1-.1.2-.2.2s-.2-.1-.2-.2l-.1-2.2.1-4.6c0-.1.1-.2.2-.2s.2.1.2.2l.2 4.6zm.9 0c0 .1-.1.2-.2.2s-.2-.1-.2-.2l-.1-2.2.1-4.7c0-.1.1-.2.2-.2s.2.1.2.2l.1 4.7zm.9 0c0 .1-.1.2-.2.2s-.2-.1-.2-.2l-.1-2.1.1-4.6c0-.1.1-.2.2-.2s.2.1.2.2l.1 4.6zm.9 0c0 .1-.1.2-.2.2s-.2-.1-.2-.2l-.1-2.1.1-4.4c0-.1.1-.2.2-.2s.2.1.2.2l.1 4.4zm.9-.1c0 .1-.1.3-.3.3-.1 0-.3-.1-.3-.3 0 0-.1-2.1-.1-2.1l.1-5.3c0-.1.1-.3.3-.3.1 0 .3.1.3.3l.1 5.3zm.9 0c0 .2-.1.3-.3.3s-.3-.1-.3-.3l-.1-2.1.1-5.7c0-.2.1-.3.3-.3s.3.1.3.3l.1 5.7zm7.5.3s-7 0-7.1 0c-.2 0-.3-.1-.3-.3v-8.1c0-.1.1-.2.2-.3.5-.2 1.1-.3 1.6-.3 2.3 0 4.3 1.8 4.5 4.1.3-.1.6-.2 1-.2 1.4 0 2.5 1.1 2.5 2.5.2 1.5-1 2.6-2.4 2.6"/></svg>